# xmcd
#
# Track frame offsets:
#	150
#	19563
#	37613
#	52991
#	65004
#	80294
#	95389
#	109112
#	129472
#	147690
#	163605
#	178298
#	190508
#	207588
#	220668
#	234221
#	246101
#	261101
#	275159
#	288199
#	302944
#
# Disc length: 4199 seconds
#
# Revision: 1
# Processed by: cddbd v1.5.2PL0 Copyright (c) Steve Scherf et al.
# Submitted via: audiograbber 1.83.01
#
DISCID=2b106515
DTITLE=Various Artist - Halland's Country Hits Volume 2
DYEAR=1900
DGENRE=
TTITLE0=Restless Heart - Familiar
TTITLE1=Restless Heart - Say What's In Your Heart
TTITLE2=Restless Heart - That Rock Won't Roll
TTITLE3=John Schneider - I've Been Around Enough To Know
TTITLE4=John Schneider - What's A Memory Like You
TTITLE5=John Schneider - You're The Last Thing I Needed...
TTITLE6=Dan Seals - Three Time Loser
TTITLE7=Dan Seals - You Still Move Me
TTITLE8=Shenandoah - Sunday In The South
TTITLE9=T.G. Sheppard - I Loved 'Em Everyone
TTITLE10=Ricky Scaggs - Heartbroke
TTITLE11=Ricky Scaggs - Let It Be You
TTITLE12=Southern Pacific - New Shade Of Blue
TTITLE13=Doug Stone - Fourteen Minutes Old
TTITLE14=George Strait - A Fire I Can't Put Out
TTITLE15=George Strait - Ace In The Hole
TTITLE16=George Strait - All My Ex's Live In Texas
TTITLE17=George Strait - Am I Blue
TTITLE18=George Strait - Amarillo By Morning
TTITLE19=George Strait - Does Ft. Worth Ever Cross Your Mind
TTITLE20=George Strait - Fool Hearted Memory
EXTD=
EXTT0=
EXTT1=
EXTT2=
EXTT3=
EXTT4=
EXTT5=
EXTT6=
EXTT7=
EXTT8=
EXTT9=
EXTT10=
EXTT11=
EXTT12=
EXTT13=
EXTT14=
EXTT15=
EXTT16=
EXTT17=
EXTT18=
EXTT19=
EXTT20=
PLAYORDER=
